<?xml version="1.0" encoding="utf-8"?>
<!-- Generator: Adobe Illustrator 16.0.0, SVG Export Plug-In . SVG Version: 6.00 Build 0)  -->
<!DOCTYPE svg PUBLIC "-//W3C//DTD SVG 1.1//EN" "http://www.w3.org/Graphics/SVG/1.1/DTD/svg11.dtd">
<svg version="1.1"
	 id="Layer_1" xmlns:dc="http://purl.org/dc/elements/1.1/" xmlns:cc="http://creativecommons.org/ns#" xmlns:rdf="http://www.w3.org/1999/02/22-rdf-syntax-ns#" xmlns:svg="http://www.w3.org/2000/svg" xmlns:sodipodi="http://sodipodi.sourceforge.net/DTD/sodipodi-0.dtd" xmlns:inkscape="http://www.inkscape.org/namespaces/inkscape" sodipodi:docname="church.svg" inkscape:version="0.91 r13725"
	 xmlns="http://www.w3.org/2000/svg" xmlns:xlink="http://www.w3.org/1999/xlink" x="0px" y="0px" width="512px" height="512px"
	 viewBox="0 0 512 512" enable-background="new 0 0 512 512" xml:space="preserve">
<sodipodi:namedview  inkscape:cy="550.33031" inkscape:cx="-23.573947" inkscape:zoom="0.63255811" showgrid="false" guidetolerance="10" gridtolerance="10" objecttolerance="10" bordercolor="#666666" pagecolor="#ffffff" borderopacity="1" id="namedview5" inkscape:current-layer="Layer_1" inkscape:window-maximized="1" inkscape:window-y="-8" inkscape:window-x="-8" inkscape:window-height="1001" inkscape:window-width="1280" inkscape:pageopacity="0" inkscape:pageshadow="2">
	</sodipodi:namedview>
<g id="path4229" inkscape:connector-curvature="0" opacity="0.4">
	
		<image overflow="visible" enable-background="new    " width="489" height="583" xlink:href="A4BB998D.png"  transform="matrix(0.9427 0 0 0.9228 25.5 -25.873)">
	</image>
</g>
<path id="path4229_1_" inkscape:connector-curvature="0" fill="#FFD360" d="M298.912,243.254v-86.215h29.073l-58.145-57.477V70.824
	h29.072V42.086h-29.072V13.347H240.77v28.739h-29.073v28.738h29.073v28.738l-58.145,57.477h29.072v86.214L66.336,358.208h58.145
	v114.953h87.216v-71.845c0-23.8,19.518-43.108,43.608-43.108c24.073,0,43.606,19.309,43.606,43.108v71.845h87.219V358.208h58.143
	L298.912,243.254L298.912,243.254z M269.841,214.517H240.77v-43.108c0-7.943,6.501-14.369,14.535-14.369s14.536,6.426,14.536,14.369
	V214.517z"/>
</svg>
