<?xml version="1.0" encoding="utf-8"?>
<!-- Generator: Adobe Illustrator 16.0.0, SVG Export Plug-In . SVG Version: 6.00 Build 0)  -->
<!DOCTYPE svg PUBLIC "-//W3C//DTD SVG 1.1//EN" "http://www.w3.org/Graphics/SVG/1.1/DTD/svg11.dtd">
<svg version="1.1"
	 id="Layer_1" xmlns:dc="http://purl.org/dc/elements/1.1/" xmlns:cc="http://creativecommons.org/ns#" xmlns:rdf="http://www.w3.org/1999/02/22-rdf-syntax-ns#" xmlns:svg="http://www.w3.org/2000/svg" xmlns:sodipodi="http://sodipodi.sourceforge.net/DTD/sodipodi-0.dtd" xmlns:inkscape="http://www.inkscape.org/namespaces/inkscape" sodipodi:docname="compass.svg" inkscape:version="0.91 r13725"
	 xmlns="http://www.w3.org/2000/svg" xmlns:xlink="http://www.w3.org/1999/xlink" x="0px" y="0px" width="200px" height="200px"
	 viewBox="0 0 200 200" enable-background="new 0 0 200 200" xml:space="preserve">
<sodipodi:namedview  inkscape:cy="135.03492" inkscape:cx="31.784209" inkscape:zoom="1.3982228" showgrid="false" guidetolerance="10" gridtolerance="10" objecttolerance="10" bordercolor="#666666" pagecolor="#ffffff" borderopacity="1" id="namedview5" inkscape:current-layer="Layer_1" inkscape:window-maximized="1" inkscape:window-y="-8" inkscape:window-x="-8" inkscape:window-height="1001" inkscape:window-width="1280" inkscape:pageopacity="0" inkscape:pageshadow="2" fit-margin-top="0" fit-margin-left="0" fit-margin-bottom="0" fit-margin-right="0">
	</sodipodi:namedview>
<g id="path4143" inkscape:connector-curvature="0" opacity="0.4">
	<image overflow="visible" width="317" height="329" xlink:href="D6237858.png"  transform="matrix(1 0 0 1 -58.5 -64.5)">
	</image>
</g>
<path id="path4143_1_" inkscape:connector-curvature="0" fill="#FFD360" d="M111.48,20.786V8.5H88.519v12.286
	c-42.112,5.607-74.627,41.439-74.627,84.934c0,47.381,38.547,85.781,86.108,85.781c47.562,0,86.109-38.4,86.109-85.781
	C186.108,62.225,153.593,26.393,111.48,20.786z M105.74,179.774v-11.148H94.259v11.148c-36.574-2.793-65.792-31.913-68.595-68.336
	h11.189v-11.438H25.664C28.612,61.678,60.791,31.375,100,31.375c39.208,0,71.387,30.303,74.336,68.626h-11.19v11.438h11.19
	C171.533,147.861,142.302,176.981,105.74,179.774z M94.147,65.688h-5.628V37.093h7.321c0,0,8.409,15.861,10.079,19.815V37.093h5.562
	v28.594h-6.593c0,0-9.373-17.782-10.741-21.133V44.6V65.688L94.147,65.688z M110.809,109.16l25.721,32.949l-33.076-25.624
	c-3.947,1.264-8.432,0.447-11.571-2.68c-3.139-3.127-3.946-7.596-2.69-11.526L63.471,69.329l33.075,25.624
	c3.948-1.251,8.433-0.447,11.571,2.68C111.256,100.76,112.075,105.228,110.809,109.16z"/>
</svg>
