<?xml version="1.0" encoding="UTF-8" standalone="no"?>
<!-- Generator: Adobe Illustrator 16.0.0, SVG Export Plug-In . SVG Version: 6.00 Build 0)  -->

<svg
   xmlns:dc="http://purl.org/dc/elements/1.1/"
   xmlns:cc="http://creativecommons.org/ns#"
   xmlns:rdf="http://www.w3.org/1999/02/22-rdf-syntax-ns#"
   xmlns:svg="http://www.w3.org/2000/svg"
   xmlns="http://www.w3.org/2000/svg"
   xmlns:sodipodi="http://sodipodi.sourceforge.net/DTD/sodipodi-0.dtd"
   xmlns:inkscape="http://www.inkscape.org/namespaces/inkscape"
   version="1.1"
   id="Layer_1"
   x="0px"
   y="0px"
   width="200.5"
   height="200.571"
   viewBox="0 0 200.5 200.571"
   enable-background="new 0 0 512 512"
   xml:space="preserve"
   inkscape:version="0.91 r13725"
   sodipodi:docname="resource.svg"><metadata
   id="metadata9"><rdf:RDF><cc:Work
       rdf:about=""><dc:format>image/svg+xml</dc:format><dc:type
         rdf:resource="http://purl.org/dc/dcmitype/StillImage" /><dc:title /></cc:Work></rdf:RDF></metadata><defs
   id="defs7" /><sodipodi:namedview
   pagecolor="#ffffff"
   bordercolor="#666666"
   borderopacity="1"
   objecttolerance="10"
   gridtolerance="10"
   guidetolerance="10"
   inkscape:pageopacity="0"
   inkscape:pageshadow="2"
   inkscape:window-width="1280"
   inkscape:window-height="1001"
   id="namedview5"
   showgrid="false"
   inkscape:zoom="1.9456948"
   inkscape:cx="49.223272"
   inkscape:cy="47.186818"
   inkscape:window-x="-8"
   inkscape:window-y="-8"
   inkscape:window-maximized="1"
   inkscape:current-layer="Layer_1"
   fit-margin-top="0"
   fit-margin-left="0"
   fit-margin-right="0"
   fit-margin-bottom="0" />

<path
   inkscape:connector-curvature="0"
   style="fill:#ffd360;fill-opacity:1"
   id="path4133"
   d="m 167.95539,39.410306 -33.73686,0 0,-36.8439739 33.73686,36.8439739 z m 11.2456,12.281322 0,147.375902 -157.43874,0 0,-196.5011979 101.21062,0 0,49.1252959 56.22812,0 z m -134.947488,0 67.473748,0 0,-12.281322 -67.473748,0 0,12.281322 z m 112.456238,98.250612 -112.456238,0 0,12.28132 112.456238,0 0,-12.28132 z m 0,-36.84398 -112.456238,0 0,12.28132 112.456238,0 0,-12.28132 z m 0,-36.84399 -112.456238,0 0,12.281332 112.456238,0 0,-12.281332 z" /></svg>