<?xml version="1.0" encoding="utf-8"?>
<!-- Generator: Adobe Illustrator 16.0.0, SVG Export Plug-In . SVG Version: 6.00 Build 0)  -->
<!DOCTYPE svg PUBLIC "-//W3C//DTD SVG 1.1//EN" "http://www.w3.org/Graphics/SVG/1.1/DTD/svg11.dtd">
<svg version="1.1"
	 id="svg2" xmlns:dc="http://purl.org/dc/elements/1.1/" xmlns:cc="http://creativecommons.org/ns#" xmlns:rdf="http://www.w3.org/1999/02/22-rdf-syntax-ns#" xmlns:svg="http://www.w3.org/2000/svg" xmlns:sodipodi="http://sodipodi.sourceforge.net/DTD/sodipodi-0.dtd" xmlns:inkscape="http://www.inkscape.org/namespaces/inkscape" sodipodi:docname="testimony.svg" inkscape:version="0.91 r13725"
	 xmlns="http://www.w3.org/2000/svg" xmlns:xlink="http://www.w3.org/1999/xlink" x="0px" y="0px" width="200px" height="200px"
	 viewBox="0 0 200 200" enable-background="new 0 0 200 200" xml:space="preserve">
<sodipodi:namedview  inkscape:cy="48.18482" inkscape:cx="-32.576291" inkscape:zoom="0.87731625" showgrid="false" guidetolerance="10" gridtolerance="10" objecttolerance="10" bordercolor="#666666" pagecolor="#ffffff" borderopacity="1" id="namedview8" inkscape:current-layer="svg2" inkscape:window-maximized="1" inkscape:window-y="-8" inkscape:window-x="-8" inkscape:window-height="1001" inkscape:window-width="1280" inkscape:pageopacity="0" inkscape:pageshadow="2">
	</sodipodi:namedview>
<g id="g4" transform="translate(0,-312)">
</g>
<g id="path4134" inkscape:connector-curvature="0">
	<g opacity="0.4">
		<image overflow="visible" width="244" height="249" xlink:href="23309143.png"  transform="matrix(1 0 0 1 -19.5 -23.5)">
		</image>
	</g>
</g>
<path id="path4134_1_" inkscape:connector-curvature="0" fill="#FFD360" d="M87.742,13.185c34.963,0,63.205,27.618,63.205,61.325
	c0,1.343,0,2.913-0.218,4.255c-3.254-0.669-6.483-0.888-9.967-0.888c-30.559,0-55.325,24.019-55.325,53.669c0,1.347,0,2.921,0,4.26
	c-7.425-0.227-14.598-1.801-21.315-4.494c-10.884,17.975-24.088,25.387-47.47,21.565c12.741-8.763,19.927-22.23,21.298-40.648
	c-8.319-10.333-13.426-23.354-13.426-37.719C24.525,40.803,52.78,13.185,87.742,13.185L87.742,13.185L87.742,13.185z
	 M140.307,83.707c-26.171,0-47.478,20.442-47.478,45.815c0,10.557,3.94,20.435,10.189,28.074
	c-1.158,13.922-6.462,24.035-15.961,30.546c17.35,2.689,27.317-2.698,35.427-16.182c5.563,2.251,11.569,3.371,17.827,3.371
	c25.928,0,47.227-20.656,47.227-45.81C187.533,104.149,166.234,83.707,140.307,83.707L140.307,83.707L140.307,83.707z
	 M145.409,139.868c0,1.108,0.234,1.999,0.456,2.454c0.456,0.908,1.149,1.348,2.074,1.797c0.708,0.455,1.865,0.673,3.25,0.673
	c4.635,0,8.558-2.017,12.281-6.061c4.157-4.494,6.244-9.654,6.244-15.27c0-4.044-0.924-7.861-2.766-11.229
	c-2.572-4.044-5.566-7.18-9.736-9.212c-3.928-2.017-8.562-2.909-13.657-2.909c-6.491,0-12.283,1.342-16.684,4.26
	c-4.618,2.925-8.332,6.966-10.888,12.341c-1.849,4.51-3.004,8.998-3.004,13.938c0,4.264,0.934,8.532,2.553,12.127
	c1.393,2.916,3.472,5.614,6.239,7.861c2.796,2.243,6.032,4.04,9.734,5.161c3.936,1.128,8.114,1.801,12.74,1.801
	c4.868,0,9.039-0.669,12.497-2.024c3.693-1.128,6.731-2.914,9.257-5.16c2.552-2.021,4.17-4.272,5.347-6.293h-5.556
	c-1.864,2.476-4.643,4.499-8.132,6.293c-3.692,1.797-8.079,2.688-13.638,2.688c-4.869,0-9.5-0.896-13.665-2.466
	c-4.171-1.805-7.403-4.267-9.495-7.861c-2.079-3.591-3.232-7.635-3.232-12.58c0-4.719,1.153-8.973,3.232-13.029
	c2.087-4.029,5.32-7.172,9.261-9.425c3.932-2.239,8.332-3.367,13.2-3.367c4.162,0,7.876,0.896,11.348,2.698
	c3.706,1.801,6.245,4.04,7.851,6.956c1.866,2.916,2.799,5.842,2.799,9.213c0,2.921-0.703,5.614-2.083,8.313
	c-1.396,2.686-3.241,4.938-5.575,6.507c-1.832,1.124-3.22,1.81-4.371,1.81c-0.459,0-0.945-0.243-1.405-0.686
	c-0.456-0.449-0.687-0.904-0.687-1.344c0-0.239,0.23-1.805,0.929-4.721l4.394-19.983h-5.568l-0.912,4.705
	c-1.171-1.793-2.56-3.358-4.17-4.26c-1.622-0.9-3.233-1.347-5.103-1.347c-2.313,0-4.86,0.904-7.169,2.476
	c-2.556,1.564-4.655,4.036-6.262,7.179c-1.853,3.145-2.553,6.289-2.553,9.429c0,2.692,0.471,4.945,1.611,7.188
	c0.941,2.023,2.547,3.594,4.179,4.726c1.636,0.889,3.472,1.562,5.329,1.562c1.618,0,3.245-0.442,4.859-1.339
	c1.874-0.901,3.255-2.252,4.647-3.59l0,0L145.409,139.868z M130.352,131.775c0,2.692,0.69,4.713,2.079,6.283
	c1.393,1.57,2.772,2.253,4.63,2.253c1.162,0,2.305-0.232,3.702-0.901c1.167-0.679,2.321-1.811,3.479-3.148
	c1.164-1.119,2.079-2.912,3.012-4.945c0.686-2.017,0.916-4.04,0.916-6.057c0-2.699-0.694-4.727-2.074-6.297
	c-1.381-1.564-3.012-2.25-4.873-2.25c-1.384,0-2.543,0.449-3.702,0.908c-1.162,0.679-2.316,1.801-3.472,3.136
	c-1.146,1.577-1.839,3.157-2.547,5.407C130.795,128.176,130.353,129.979,130.352,131.775L130.352,131.775z"/>
</svg>
